#!OML:ASF G:\JayActor3\Patient Classification 1\Patient 1\Session 6\male.ASF
:FULLY-SPECIFIED
:DEGREES
485
root 25.9178 15.8087 -22.3515 -256.99 -82.6235 -108.473
lowerback -1.23613 2.47725 0.127582
upperback -0.457593 3.29629 -1.4573
thorax 0.316418 1.64358 -1.51165
lowerneck 11.2046 11.9315 6.96174
upperneck -12.7249 17.4781 1.6495
head -5.23943 8.03351 -1.8272
rclavicle -2.98177e-014 3.49861e-014
rhumerus -4.23765 38.1725 -68.8906
rradius 84.0546
rwrist -23.0238
rhand -41.629 -13.2194
rfingers 7.12502
rthumb -14.5378 -42.69
lclavicle -2.98177e-014 3.49861e-014
lhumerus -7.51385 10.7837 46.2401
lradius 54.0298
lwrist 67.0381
lhand -38.4882 11.6591
lfingers 7.12502
lthumb -11.5101 41.3231
rfemur -20.9884 14.5308 17.8514
rtibia 33.0111
rfoot -5.32466 -1.19698
rtoes -5.83232
lfemur 17.5537 5.82746 -20.5687
ltibia 34.7772
lfoot 13.5809 -9.83024
ltoes -4.59942
486
root 25.7354 15.8343 -22.369 -269.153 -82.3643 -96.5548
lowerback -0.967146 2.35924 0.757373
upperback -0.371659 3.1356 -1.3477
thorax 0.277032 1.56501 -1.76333
lowerneck 11.0893 11.6958 6.88249
upperneck -12.6761 17.1458 1.72641
head -5.22752 7.87354 -1.76576
rclavicle 3.77691e-015 3.18055e-015
rhumerus -4.37486 37.9911 -68.8785
rradius 84.057
rwrist -23.1139
rhand -41.9552 -13.2491
rfingers 7.12502
rthumb -14.852 -42.6967
lclavicle 3.77691e-015 3.18055e-015
lhumerus -7.00553 10.7578 46.5396
lradius 53.9321
lwrist 67.2847
lhand -38.7775 11.5965
lfingers 7.12502
lthumb -11.7891 41.2447
rfemur -19.2404 13.6161 18.6578
rtibia 32.4837
rfoot -6.28359 -1.39833
rtoes -6.28586
lfemur 15.4075 5.39738 -19.6668
ltibia 39.3312
lfoot 15.4928 -8.79902
ltoes -3.31697
487
root 25.5563 15.8572 -22.3848 -279.932 -81.5788 -85.9766
lowerback -0.731549 2.24175 1.59918
upperback -0.294146 2.97721 -1.16356
thorax 0.251711 1.48781 -2.05543
lowerneck 10.991 11.4448 6.78896
upperneck -12.6862 16.7916 1.76869
head -5.2348 7.70279 -1.7148
rclavicle -2.88238e-014 1.74931e-014
rhumerus -4.45912 37.8171 -68.7618
rradius 84.1083
rwrist -23.3066
rhand -42.279 -13.232
rfingers 7.12502
rthumb -15.1639 -42.6564
lclavicle -2.88238e-014 1.74931e-014
lhumerus -6.46596 10.7077 46.8716
lradius 53.834
lwrist 67.5377
lhand -39.0492 11.5545
lfingers 7.12502
lthumb -12.0511 41.1876
rfemur -17.4253 12.547 19.7006
rtibia 31.685
rfoot -7.17359 -1.67295
rtoes -6.51525
lfemur 13.106 4.94296 -18.5712
ltibia 43.871
lfoot 16.9677 -7.60184
ltoes -2.06878
488
root 25.3797 15.8774 -22.4002 -288.275 -80.4133 -77.7784
lowerback -0.54014 2.13649 2.56305
upperback -0.246261 2.83664 -0.922917
thorax 0.221282 1.41885 -2.35627
lowerneck 10.9528 11.1687 6.70611
upperneck -12.7588 16.4097 1.77555
head -5.26772 7.51647 -1.68029
rclavicle 1.8487e-014 3.18055e-015
rhumerus -4.53296 37.6453 -68.5735
rradius 84.212
rwrist -23.5404
rhand -42.6057 -13.154
rfingers 7.12502
rthumb -15.4787 -42.5544
lclavicle 1.8487e-014 3.18055e-015
lhumerus -5.89276 10.6197 47.2303
lradius 53.7214
lwrist 67.7709
lhand -39.3083 11.5415
lfingers 7.12502
lthumb -12.3009 41.1597
rfemur -15.6226 11.4157 20.894
rtibia 30.6854
rfoot -7.98416 -2.0455
rtoes -6.60815
lfemur 10.6691 4.51955 -17.3394
ltibia 48.2938
lfoot 17.8215 -6.35034
ltoes -1.02433
489
root 25.2056 15.8952 -22.4168 -294.451 -79.051 -71.6805
lowerback -0.39929 2.045 3.5336
upperback -0.232182 2.71534 -0.650049
thorax 0.181157 1.35808 -2.62601
lowerneck 10.9451 10.8749 6.60182
upperneck -12.8762 16.0063 1.78263
head -5.32163 7.31771 -1.64499
rclavicle 4.96962e-014 4.77083e-015
rhumerus -4.57992 37.4795 -68.3208
rradius 84.352
rwrist -23.7542
rhand -42.9171 -13.0327
rfingers 7.12502
rthumb -15.7785 -42.4096
lclavicle 4.96962e-014 4.77083e-015
lhumerus -5.28443 10.5107 47.6105
lradius 53.5839
lwrist 67.9536
lhand -39.5257 11.5895
lfingers 7.12502
lthumb -12.5105 41.195
rfemur -13.912 10.2924 22.128
rtibia 29.5844
rfoot -8.71393 -2.51622
rtoes -6.62648
lfemur 8.11882 4.16534 -16.0626
ltibia 52.5
lfoot 17.9368 -5.13129
ltoes -0.360127
